# xmcd
#
# Track frame offsets: 
#        150
#        24217
#        38310
#        59583
#        73186
#        90511
#
# Disc length: 1927 seconds
#
# Revision: 0
# Processed by: cddbd v1.5.1PL0 Copyright (c) Steve Scherf et al.
# Submitted via: ExactAudioCopy v0.95a5
#
DISCID=41078506
DTITLE=The John Butler Trio - What You Want
DYEAR=2004
DGENRE=Hippie
TTITLE0=What You Want
TTITLE1=Somethings Gotta Give
TTITLE2=Treat Yo Mama - Country Funk Version
TTITLE3=Pickapart
TTITLE4=Across the Universe
TTITLE5=Betterman - Live at the Max Session
EXTD=
EXTT0=
EXTT1=
EXTT2=
EXTT3=
EXTT4=
EXTT5=
PLAYORDER=
